# xmcd
#
# Track frame offsets:
#	150
#	5997
#	26902
#	75199
#	108436
#	131534
#	158324
#	180575
#	208250
#	228411
#	270598
#	294457
#
# Disc length: 4281 seconds
#
# Revision: 1
# Processed by: cddbd v1.5.2PL0 Copyright (c) Steve Scherf et al.
# Submitted via: audiograbber 1.83.01
#
DISCID=9a10b70c
DTITLE=Grateful Dead - 73-12-08 Cameron Indoor Stadium, Duke University, Durham
DTITLE=NC
DYEAR=1900
DGENRE=
TTITLE0=WRS Prelude
TTITLE1=WRS Part One
TTITLE2=Let It Grow
TTITLE3=China Cat Sunflower
TTITLE4=I Know You Rider
TTITLE5=Tuning > Stage Banter
TTITLE6=Around and Around
TTITLE7=Ramble On Rose
TTITLE8=El Paso
TTITLE9=Row Jimmy
TTITLE10=Greatest Story Ever Told
TTITLE11=Bertha
EXTD=
EXTT0=
EXTT1=
EXTT2=
EXTT3=
EXTT4=
EXTT5=
EXTT6=
EXTT7=
EXTT8=
EXTT9=
EXTT10=
EXTT11=
PLAYORDER=
